<mxfile host="app.diagrams.net" modified="2021-04-12T10:29:38.049Z" agent="5.0 (Macintosh; Intel Mac OS X 11_2_3) AppleWebKit/537.36 (KHTML, like Gecko) Chrome/89.0.4389.114 Safari/537.36" etag="ef35x5qbDtoMzhEfmvAO" version="14.5.10" type="github">
  <diagram id="YQmAr2Zz_Mt65AJHkmUO" name="Page-1">
    <mxGraphModel dx="1106" dy="614" grid="1" gridSize="10" guides="1" tooltips="1" connect="1" arrows="1" fold="1" page="0" pageScale="1" pageWidth="827" pageHeight="1169" math="0" shadow="0">
      <root>
        <mxCell id="0" />
        <mxCell id="1" parent="0" />
        <mxCell id="NbQpsqaVKMZ3FppXuBxZ-1" value="" style="rounded=0;whiteSpace=wrap;html=1;strokeWidth=2;" vertex="1" parent="1">
          <mxGeometry x="220" y="260" width="160" height="130" as="geometry" />
        </mxCell>
        <mxCell id="NbQpsqaVKMZ3FppXuBxZ-2" value="&lt;font style=&quot;font-size: 20px&quot;&gt;&lt;b&gt;交易1 OUTPUT&lt;/b&gt;&lt;/font&gt;" style="text;html=1;strokeColor=none;fillColor=none;align=center;verticalAlign=middle;whiteSpace=wrap;rounded=0;" vertex="1" parent="1">
          <mxGeometry x="227.5" y="270" width="145" height="40" as="geometry" />
        </mxCell>
        <mxCell id="NbQpsqaVKMZ3FppXuBxZ-3" value="&lt;font style=&quot;font-size: 20px&quot;&gt;&lt;b&gt;公钥哈希&lt;/b&gt;&lt;/font&gt;" style="rounded=0;whiteSpace=wrap;html=1;" vertex="1" parent="1">
          <mxGeometry x="230" y="320" width="140" height="60" as="geometry" />
        </mxCell>
        <mxCell id="NbQpsqaVKMZ3FppXuBxZ-4" value="" style="rounded=0;whiteSpace=wrap;html=1;strokeWidth=2;" vertex="1" parent="1">
          <mxGeometry x="420" y="110" width="160" height="280" as="geometry" />
        </mxCell>
        <mxCell id="NbQpsqaVKMZ3FppXuBxZ-5" value="&lt;font style=&quot;font-size: 20px&quot;&gt;&lt;b&gt;解锁脚本&lt;/b&gt;&lt;/font&gt;" style="text;html=1;strokeColor=none;fillColor=none;align=center;verticalAlign=middle;whiteSpace=wrap;rounded=0;" vertex="1" parent="1">
          <mxGeometry x="427.5" y="120" width="145" height="40" as="geometry" />
        </mxCell>
        <mxCell id="NbQpsqaVKMZ3FppXuBxZ-6" value="&lt;font style=&quot;font-size: 20px&quot;&gt;&lt;b&gt;锁定脚本&lt;/b&gt;&lt;/font&gt;" style="text;html=1;strokeColor=none;fillColor=none;align=center;verticalAlign=middle;whiteSpace=wrap;rounded=0;" vertex="1" parent="1">
          <mxGeometry x="427.5" y="270" width="145" height="40" as="geometry" />
        </mxCell>
        <mxCell id="NbQpsqaVKMZ3FppXuBxZ-7" value="&lt;font style=&quot;font-size: 20px&quot;&gt;&lt;b&gt;公钥哈希&lt;/b&gt;&lt;/font&gt;" style="rounded=0;whiteSpace=wrap;html=1;" vertex="1" parent="1">
          <mxGeometry x="430" y="320" width="140" height="60" as="geometry" />
        </mxCell>
        <mxCell id="NbQpsqaVKMZ3FppXuBxZ-8" value="&lt;font style=&quot;font-size: 20px&quot;&gt;&lt;b&gt;签名&lt;/b&gt;&lt;/font&gt;" style="rounded=0;whiteSpace=wrap;html=1;" vertex="1" parent="1">
          <mxGeometry x="450" y="160" width="105" height="40" as="geometry" />
        </mxCell>
        <mxCell id="NbQpsqaVKMZ3FppXuBxZ-9" value="&lt;font style=&quot;font-size: 20px&quot;&gt;&lt;b&gt;完整公钥&lt;/b&gt;&lt;/font&gt;" style="rounded=0;whiteSpace=wrap;html=1;" vertex="1" parent="1">
          <mxGeometry x="430" y="210" width="140" height="40" as="geometry" />
        </mxCell>
        <mxCell id="NbQpsqaVKMZ3FppXuBxZ-10" value="" style="rounded=0;whiteSpace=wrap;html=1;strokeWidth=2;" vertex="1" parent="1">
          <mxGeometry x="620" y="110" width="160" height="150" as="geometry" />
        </mxCell>
        <mxCell id="NbQpsqaVKMZ3FppXuBxZ-11" value="&lt;font style=&quot;font-size: 20px&quot;&gt;&lt;b&gt;A 用户&lt;/b&gt;&lt;/font&gt;" style="text;html=1;strokeColor=none;fillColor=none;align=center;verticalAlign=middle;whiteSpace=wrap;rounded=0;" vertex="1" parent="1">
          <mxGeometry x="627.5" y="120" width="145" height="40" as="geometry" />
        </mxCell>
        <mxCell id="NbQpsqaVKMZ3FppXuBxZ-15" style="edgeStyle=orthogonalEdgeStyle;rounded=0;orthogonalLoop=1;jettySize=auto;html=1;exitX=0;exitY=0.5;exitDx=0;exitDy=0;dashed=1;strokeWidth=2;" edge="1" parent="1" source="NbQpsqaVKMZ3FppXuBxZ-12" target="NbQpsqaVKMZ3FppXuBxZ-8">
          <mxGeometry relative="1" as="geometry" />
        </mxCell>
        <mxCell id="NbQpsqaVKMZ3FppXuBxZ-12" value="&lt;font style=&quot;font-size: 20px&quot;&gt;&lt;b&gt;私钥&lt;/b&gt;&lt;/font&gt;" style="rounded=0;whiteSpace=wrap;html=1;" vertex="1" parent="1">
          <mxGeometry x="647.5" y="160" width="105" height="40" as="geometry" />
        </mxCell>
        <mxCell id="NbQpsqaVKMZ3FppXuBxZ-16" style="edgeStyle=orthogonalEdgeStyle;rounded=0;orthogonalLoop=1;jettySize=auto;html=1;exitX=0;exitY=0.5;exitDx=0;exitDy=0;entryX=1;entryY=0.5;entryDx=0;entryDy=0;strokeWidth=2;" edge="1" parent="1" source="NbQpsqaVKMZ3FppXuBxZ-13" target="NbQpsqaVKMZ3FppXuBxZ-9">
          <mxGeometry relative="1" as="geometry" />
        </mxCell>
        <mxCell id="NbQpsqaVKMZ3FppXuBxZ-13" value="&lt;font style=&quot;font-size: 20px&quot;&gt;&lt;b&gt;完整公钥&lt;/b&gt;&lt;/font&gt;" style="rounded=0;whiteSpace=wrap;html=1;" vertex="1" parent="1">
          <mxGeometry x="630" y="210" width="140" height="40" as="geometry" />
        </mxCell>
        <mxCell id="NbQpsqaVKMZ3FppXuBxZ-14" style="edgeStyle=orthogonalEdgeStyle;rounded=0;orthogonalLoop=1;jettySize=auto;html=1;exitX=1;exitY=0.5;exitDx=0;exitDy=0;strokeWidth=2;" edge="1" parent="1" source="NbQpsqaVKMZ3FppXuBxZ-3" target="NbQpsqaVKMZ3FppXuBxZ-7">
          <mxGeometry relative="1" as="geometry" />
        </mxCell>
      </root>
    </mxGraphModel>
  </diagram>
</mxfile>
